<?xml version="1.0" encoding="UTF-8"?>
<svg id="Layer_1" data-name="Layer 1" xmlns="http://www.w3.org/2000/svg" version="1.1" viewBox="0 0 448 118">
  <defs>
    <style>
      .cls-1 {
        fill: #3399fe;
      }

      .cls-1, .cls-2 {
        stroke-width: 0px;
      }

      .cls-2 {
        fill: #fbd405;
      }
    </style>
  </defs>
  <path class="cls-1" d="M421,52.2c.2,0,.7-.2,1.5-.2.8,0,1.5-.1,2.2-.1,1.3,0,2.4.8,3.5,2.4l-.9.7c-1,.8-2.5,1.4-4.5,1.8-1.7.9-3,1.6-3.9,2.2-.8.6-1.4,1.2-1.8,2-.4.7-.5,1.7-.5,2.8s.1,1.9.4,4.2l.3,2.9c.4,3.5.7,6,1,7.7,0,.6.3,1.3.5,2.1.3.8.6,1.2,1,1.4.3.1,1,0,1.9-.7,1.8-2.2,3-3.7,3.5-4.5.1-.2.4-.6.7-1.2.3-.5.6-1,1-1.2.3-.3.7-.5,1.2-.5s.3,0,.7.1c.7.2,1.3.6,1.7,1,.5.5.7,1.1.7,2s0,.7,0,.9c-.3,1.8-.9,3.4-1.9,4.9-1,1.4-2.3,2.9-3.9,4.3-.6.6-1.7.9-3.1.9s-3.1-.4-4.7-1.1c-1.5-.7-2.6-1.6-3.1-2.7-1.4-3-2.7-6.9-3.9-11.6-.3-1.3-.6-3.4-.7-6.2l-.2-2.5c0-1,0-1.8,0-2.4,0-.6-.8-1-2.6-1.1-.7,0-1-.5-1-1.4.5-1.4,1.2-2.3,2.1-2.6.9-.3,1.5-.8,1.7-1.7.2-.9.4-1.8.5-2.8.4-2.9.5-6.2.3-9.8,0-1.7.4-2.7,1.6-3h.6c.2.1.7.2,1.6.3.8,0,1.5.3,2.2.6,1.6.9,2.4,2.4,2.4,4.5s-.2,2.1-.5,3.5c0,.2-.1.4-.2.6s-.2.4-.2.6c-.1.7-.2,1.2-.2,1.7-.4,1.4,0,2,1,2s1.3-.2,2.7-.7Z"/>
  <path class="cls-1" d="M383.5,60.6c0,.3,0,.6-.1,1.1,0,.4-.1.7,0,.8,3.1-.7,5.8-1,7.9-1,3.4,0,5.9,1.6,7.7,4.9,1.4,2.8,2.1,5.8,2.1,9.2s0,2.1-.3,3.7c-.1,1.1-.6,2-1.3,2.6-.7.6-1.6,1-2.6,1s-1.8-.2-2.2-.5c-.4-.4-.7-.9-.7-1.4,0-.5,0-1.3,0-2.4v-1.4c-.2-2.7-.3-5.1-.6-7.1-.1-.8-.5-1.4-1-1.7-.5-.4-1.1-.5-1.8-.5s-1.6.1-2.6.3c-1.5.4-2.6.7-3.1,1-.5.2-1.2.7-2.2,1.4-.3.2-.5.7-.7,1.4-.1.7-.2,1.1-.2,1.2-.6,2.9-1.2,6.4-1.9,10.4,0,.2-.1.6-.3,1.3-.1.7-.4,1.2-.8,1.4-.4.3-.9.4-1.6.3-2.9-.4-4.3-1.6-4.3-3.6,0-2.6.2-5.7.6-9.3.3-2.6.6-4.7.9-6.2,0-.7.2-1.6.3-2.6.2-1,.3-2.2.5-3.6.1-1,.3-1.8.4-2.3.1-.5.5-.9,1-1.2.5-.4,1.3-.5,2.3-.5s2.4.3,3.3.9,1.4,1.4,1.6,2.5h0Z"/>
  <path class="cls-1" d="M353.2,75.6c-.5.3-1.1.4-2,.4s-.7,0-1.2,0c-.5,0-.8,0-1.2,0,.4,1.5,1.2,2.7,2.6,3.7,1.4.9,2.9,1.4,4.5,1.4s2.7-.3,3.9-1c1.7-.9,3.1-1.9,4.3-3.1.9-.9,1.7-1.3,2.4-1.3s.9.2,1.3.7c.4.6.5,1.3.5,2.2s-.2,1.6-.5,2.1c-1.2,1.8-2.7,3.1-4.6,3.7-1.9.7-4,1-6.5,1s-5.1-.6-7.5-1.7c-2.4-1.1-4.5-2.7-6.2-4.6-1.7-2-2.8-4.2-3.3-6.6-.4-1.4-.5-2.8-.5-4.1,0-2.1.6-3.8,1.8-5.2,1.2-1.3,3.2-2.6,5.8-3.7,2.4-1,4.7-1.6,6.8-1.6s2.9.2,4.3.7c4.3,1.4,6.5,3.2,6.5,5.6s-.9,3.3-2.6,5.4c-.9,1-1.9,1.9-3.1,2.6-1.2.8-2.3,1.5-3.5,2.1-1.1.6-1.8,1-2.2,1.2ZM356.1,63.1c0-.2-.2-.4-.5-.5-.3-.2-.4-.3-.5-.3-1.2,0-2.5.3-3.7,1.1-1.3.8-2.3,1.8-3.2,3-.8,1.2-1.2,2.4-1.2,3.5v.5c.1.2.3.4.7.7.5.3.7.4.8.3,3.2-2.4,5.6-4.3,7.3-5.8.3-.3.4-.8.4-1.5s0-.8,0-1Z"/>
  <path class="cls-1" d="M318.9,65.2c1.9-2.7,4-3.6,6.3-2.7,2.4.9,3.8,2,4.3,3.4l2,5.4c.5,1.4,1,3.6,1.4,6.4.4,2.9.8,5.7,1.1,8.3,0,.1,0,.4,0,.7,0,1.4-.8,2.3-2.3,2.7-1,.3-1.8,0-2.4-.7-1-1.1-1.7-2.9-2.3-5.2-.3-1.3-.8-4-1.4-8.1,0-3.3-1.1-4.5-3.4-3.6-1.2,2.3-1.9,4.2-2.3,5.6-.3,1.4-.7,2.7-1,3.7-1.1,2.6-2.1,4-2.9,4.3-.8.2-1.5,0-2.3-.3-.7-.4-1.1-1.1-1.1-2.2,0-2.3-.1-5-.4-8.3-.2-3.3-1-4.9-2.3-4.7-1.3.1-2.1.6-2.6,1.4-.5.8-1.1,2.2-1.9,4.4-.7,2.2-1.3,4.5-1.6,7.1,0,.7-.4,1.4-.8,2.2-.4.8-.8,1.2-1.2,1.4-.4.2-1,.1-2-.3-1-.4-1.5-1-1.7-1.8-.2-.9-.3-1.7-.5-2.6-.4-2.5-.5-4.7-.5-6.5,0-1.8,0-3.5-.4-5.1,0-.4-.3-.9-.6-1.6-.3-.7-2-1.9-5-3.7-.8-.8-1.2-1.5-1.2-2.2,0-.8.4-1.3,1-1.7.9-.5,1.9-.8,2.9-.8s2.6.4,3.7,1.2c1.2.8,2.1,1.6,2.6,2.6.5.9.9,1.5,1.1,2,.2.5.4.7.7.7s.6-.2.9-.6c.4-.5.9-1,1.5-1.7,1.3-1.4,2.6-2.3,3.7-2.8,1.2-.5,2.2-.7,3-.7s1.7.3,2.6.8c.9.5,1.5,1.4,1.8,2.6l1.3,5,2.1-4.1Z"/>
  <path class="cls-1" d="M267.4,60.6c0,.3,0,.6-.1,1.1,0,.4-.1.7,0,.8,3.1-.7,5.8-1,7.9-1,3.4,0,5.9,1.6,7.7,4.9,1.4,2.8,2.1,5.8,2.1,9.2s0,2.1-.3,3.7c-.1,1.1-.6,2-1.3,2.6-.7.6-1.6,1-2.6,1s-1.8-.2-2.2-.5c-.4-.4-.7-.9-.7-1.4,0-.5,0-1.3,0-2.4v-1.4c-.2-2.7-.3-5.1-.6-7.1-.1-.8-.5-1.4-1-1.7-.5-.4-1.1-.5-1.8-.5s-1.6.1-2.6.3c-1.5.4-2.6.7-3.1,1-.5.2-1.2.7-2.2,1.4-.3.2-.5.7-.7,1.4-.1.7-.2,1.1-.2,1.2-.6,2.9-1.2,6.4-1.9,10.4,0,.2-.1.6-.3,1.3-.1.7-.4,1.2-.8,1.4-.4.3-.9.4-1.6.3-2.9-.4-4.3-1.6-4.3-3.6,0-2.6.2-5.7.6-9.3.3-2.6.6-4.7.9-6.2,0-.7.2-1.6.3-2.6.2-1,.3-2.2.5-3.6.1-1,.3-1.8.4-2.3.1-.5.5-.9,1-1.2.5-.4,1.3-.5,2.3-.5s2.4.3,3.3.9c.9.6,1.4,1.4,1.6,2.5h0Z"/>
  <path class="cls-1" d="M246.3,53.2c-2.7.3-4.9-.8-6.6-3.3,1.4-1,2.8-1.6,4.1-1.6s2.9.7,3.9,2.2c.3.3.4.7.4,1.2s-.2.7-.5,1c-.4.3-.8.4-1.4.5ZM249.1,68.2c0,1.1-.2,2.7-.3,4.9l-.4,4.9c0,.6,0,1.2.2,1.9.1.7.2,1.1.3,1.4,0,.7,0,1.4-.5,1.9-.4.5-.9.7-1.6.7s-.5,0-.6,0c-1.5-.5-2.8-1.2-3.8-2.1-1-1-1.5-2.3-1.4-3.9,0-.7,0-1.8,0-3.3s0-2.9,0-3.7c0-.6,0-1.4,0-2.3,0-.9,0-2,0-3.2,0-.6.2-1.2.4-1.9.2-.7.5-1,.7-1.1.7-.1,1.5-.2,2.4-.2s2,.2,2.6.6c.4.3.7.7,1,1.3.3.5.6,1.3.9,2.2.3.7.5,1.3.7,1.6l-.6.3Z"/>
  <path class="cls-1" d="M227.6,82.7c-.4-.2-.8-.3-1.2-.3s-.8.1-1.1.3c-.3.2-.6.5-1,.9-.5.5-1.1,1-1.7,1.4-.5.3-1.5.6-3,.9-.6,0-1.2.1-1.6.1-1.9,0-3.9-.4-6-1.2-2-.9-3.5-1.9-4.3-3.1-.9-1.3-1.3-2.6-1.3-4.1,0-2.2,1-4.3,2.7-6.5,1.7-2.1,3.3-3.6,4.7-4.4,1.4-.9,3.4-1.4,5.9-1.6.5,0,1.3,0,2.3-.3,1-.2,1.6-.4,1.6-.7,0-.6-.3-1.2-.9-1.7-.5-.5-1.7-.8-3.4-.8s-1.6,0-2.9.1c-1.3,0-2.1.1-2.6.1-1.5,0-2.6-.2-3.3-.7-.2,0-.3-.5-.3-1.3,0-1.4.5-2.2,1.4-2.6,1.9-.7,4-1.1,6-1.2,2.6,0,5,.6,7.3,1.8,2.3,1.1,3.9,2.6,5,4.3,1,1.7,1.7,4.1,2,7.1.4,3.4.5,7.7.5,13s-.2,2.3-.6,2.5c-.4.2-.7.3-1,.3s-.8-.1-1.2-.3c-.3-.3-.7-.6-1.1-1.1-.4-.5-.8-.8-1.1-1ZM216.8,81.9c2.1-.6,4.2-1.7,6.2-3.1.5-.3.9-.7,1.2-1.2.4-.5.6-.8.7-1,0-.1.2-.5.2-1.2,0-.7.1-1.2,0-1.6,0-.1-.1-.5-.3-1.1,0-.6-.2-1.1-.5-1.6-.2-.4-.6-.7-1.1-1-.5-.3-1-.5-1.4-.4-.9,0-1.8.4-2.8,1-1,.6-1.9,1.4-2.8,2.4-.9,1-1.5,2.1-2,3.2-.5,1-.7,2-.7,2.9,0,1.2.4,2,1,2.4.3.2.7.3,1.2.3s.7,0,.9-.1Z"/>
  <path class="cls-1" d="M190.1,52.2c.2,0,.7-.2,1.5-.2.8,0,1.5-.1,2.2-.1,1.3,0,2.4.8,3.5,2.4l-.9.7c-1,.8-2.5,1.4-4.5,1.8-1.7.9-3,1.6-3.9,2.2-.8.6-1.4,1.2-1.8,2-.4.7-.5,1.7-.5,2.8s.1,1.9.4,4.2l.3,2.9c.4,3.5.7,6,1,7.7,0,.6.3,1.3.5,2.1.3.8.6,1.2,1,1.4.3.1,1,0,1.9-.7,1.8-2.2,3-3.7,3.5-4.5.1-.2.4-.6.7-1.2.3-.5.6-1,1-1.2.3-.3.7-.5,1.2-.5s.3,0,.7.1c.7.2,1.3.6,1.7,1,.5.5.7,1.1.7,2s0,.7,0,.9c-.3,1.8-.9,3.4-1.9,4.9-1,1.4-2.3,2.9-3.9,4.3-.6.6-1.7.9-3.1.9s-3.1-.4-4.7-1.1c-1.5-.7-2.6-1.6-3.1-2.7-1.4-3-2.7-6.9-3.9-11.6-.3-1.3-.6-3.4-.7-6.2l-.2-2.5c0-1,0-1.8,0-2.4,0-.6-.8-1-2.6-1.1-.7,0-1-.5-1-1.4.5-1.4,1.2-2.3,2.1-2.6.9-.3,1.5-.8,1.7-1.7.2-.9.4-1.8.5-2.8.4-2.9.5-6.2.3-9.8,0-1.7.4-2.7,1.6-3h.6c.2.1.7.2,1.6.3.8,0,1.5.3,2.2.6,1.6.9,2.4,2.4,2.4,4.5s-.2,2.1-.5,3.5c0,.2-.1.4-.2.6,0,.2-.2.4-.2.6-.1.7-.2,1.2-.2,1.7-.4,1.4,0,2,1,2s1.3-.2,2.7-.7Z"/>
  <path class="cls-1" d="M151.8,57.4c.1.5.2,1.2,0,2.1l-.8,8c.2-.2.6-.8,1-1.9.5-1.1.9-2,1.3-2.7.4-.7.7-1.2,1-1.4,2.1-2,4.5-3.3,7.2-3.7,2.7-.4,5.6-.6,8.8-.5.3,0,.7.1,1,.4.4.2.6.4.6.6s-.1.4-.4.7c-.3.3-.5.5-.7.6-2.7.9-5.1,1.9-7.2,3.1-2,1.2-3.8,2.7-5.3,4.6-3.5,4.5-5.6,9.1-6.1,13.8-.1,1.3-.5,2.1-1.2,2.6-.6.4-1.5.6-2.6.6s-2.4-.5-3.4-1.6c-1-1.1-1.5-2.3-1.5-3.6,0-4.8,0-12,0-21.6s.3-2.2.9-2.7c.6-.5,1.7-.8,3.2-.8s2.1.3,2.8,1c.8.6,1.2,1.4,1.3,2.4Z"/>
  <path class="cls-1" d="M125.2,79.6c1.5-2.5,2.2-5.7,2.2-9.4s0-2.9-.3-5.2v-7c0-1.4.5-2.2,1.6-2.2s.7,0,1.1.2c2.3,1,3.6,2.1,3.9,3.2,1.1,3.7,1.7,7.4,1.7,10.9s-.7,7.7-2.2,11.3c-.8,1.9-2,3.3-3.6,4.3-1.6,1-3.3,1.4-5.3,1.4s-4.5-.6-6.3-1.8c-3.1-2-5-4.8-5.5-8.6-.2-1.9-.4-3.3-.6-4.3-.5-2.7-.7-4.8-.9-6.2,0-1,.3-1.9,1.1-2.5.8-.7,1.7-1,2.8-1s.8,0,1.2.2c1.7.6,2.8,1.4,3.5,2.5.6,1.1.9,2.6.9,4.4,0,1.4-.1,2.5-.1,3.3,0,2.6.5,4.7,1.6,6.4.2.4.4.7.7,1,.3.3.5.5.6.4.4,0,.7-.2,1-.5.4-.3.7-.6.9-1Z"/>
  <path class="cls-1" d="M94.4,52.2c.2,0,.7-.2,1.5-.2.8,0,1.5-.1,2.2-.1,1.3,0,2.4.8,3.5,2.4l-.9.7c-1,.8-2.5,1.4-4.5,1.8-1.7.9-3,1.6-3.9,2.2-.8.6-1.4,1.2-1.8,2-.4.7-.5,1.7-.5,2.8s.1,1.9.4,4.2l.3,2.9c.4,3.5.7,6,1,7.7,0,.6.3,1.3.5,2.1.3.8.6,1.2,1,1.4s1,0,1.9-.7c1.8-2.2,3-3.7,3.5-4.5.1-.2.4-.6.7-1.2.3-.5.6-1,1-1.2.3-.3.7-.5,1.2-.5s.3,0,.7.1c.7.2,1.3.6,1.7,1,.5.5.7,1.1.7,2s0,.7,0,.9c-.3,1.8-.9,3.4-1.9,4.9-1,1.4-2.3,2.9-3.9,4.3-.6.6-1.7.9-3.1.9s-3.1-.4-4.7-1.1c-1.5-.7-2.6-1.6-3.1-2.7-1.4-3-2.7-6.9-3.9-11.6-.3-1.3-.6-3.4-.7-6.2l-.2-2.5c0-1,0-1.8,0-2.4,0-.6-.8-1-2.6-1.1-.7,0-1-.5-1-1.4.5-1.4,1.2-2.3,2.1-2.6.9-.3,1.5-.8,1.7-1.7.2-.9.4-1.8.5-2.8.4-2.9.5-6.2.3-9.8,0-1.7.4-2.7,1.6-3h.6c.2.1.7.2,1.6.3.8,0,1.5.3,2.2.6,1.6.9,2.4,2.4,2.4,4.5s-.2,2.1-.5,3.5c0,.2-.1.4-.2.6,0,.2-.2.4-.2.6-.1.7-.2,1.2-.2,1.7-.4,1.4,0,2,1,2s1.3-.2,2.7-.7Z"/>
  <path class="cls-1" d="M52.6,57.7c1.1.3,1.9.7,2.4,1.2.5.5.7,1.1.7,1.8s0,.8-.2,1.4c-.5,2-.8,4.1-.8,6.1,0,2.3.3,4.4,1.1,6.4.3.7.5,1.2.7,1.5.3.3.6.4,1,.4s1-.4,1.8-1.2c1.7-2,2.9-4,3.7-6,.8-2,1.3-4,1.5-6.2.1-1.4.4-2.3.7-2.6.2-.2.5-.3.9-.3.4,0,1,0,1.8,0,1.2,0,2.1.2,2.5.3.5.1.8.4,1,.7.2.3.3.8.3,1.6v3.2c0,.7,0,1.7-.1,3-.1,4.1-.2,7.1-.3,9.1,0,1.6-.5,3.6-1.4,6,0,.1-.3.3-.7.6-.4.2-.8.4-1.1.4,0,0-.3-.1-.6-.4-.3-.3-.5-.6-.6-.8-.3-.7-.7-1.7-1.1-2.9l-.5-1.3v-.4c-.1,0-.3.2-.3.2l-1.1.7c-.5.5-1.1.8-1.8,1.1-1,.6-2.3,1-3.7,1s-3.5-.5-5.2-1.5c-1.6-1-2.9-2.4-3.9-4.2-1.5-2.7-2.3-5.9-2.3-9.4s.2-4.1.7-6.9c0-.7.5-1.3,1.3-1.8.7-.5,1.5-.7,2.4-.7s.9,0,1.4.2Z"/>
  <path class="cls-1" d="M31.9,64.9c0,1.6,0,2.7.2,3.2.2.5.6.7,1.2.7s1.5-.1,2.8-.4h1.6c2.6,0,4.2.6,4.8,1.7.2,0,.5.3.7.7.2.4.4.6.5.7-.2.1-.5.4-.8.7-.4.3-.7.4-1,.5-1,.2-2.6.5-4.7.9-.4,0-1.1.2-2.2.3-1.6.3-2.4,1.3-2.4,2.9s0,.7.1,1.3c.5,2.4,1,4.6,1.4,6.4.4,1.8.7,3.3.9,4.5l1.2,6c.5,2.2.7,3.8.7,5s-.2,1.5-.6,1.9c-.4.5-1.2.7-2.4.7s-1.7-.2-2.2-.7c-.5-.5-.9-1.3-1.1-2.4-.4-2.1-1.1-5.2-2.1-9.4l-2.2-11.3c0-2.6-1.4-3.9-3.9-3.9s-1.4-.1-1.7-.4c-.3-.2-.5-.5-.7-.7-.2-.3-.3-.6-.3-.9s.1-.5.4-.7c.3-.3.6-.5.9-.5,1.6-.2,2.7-.7,3.3-1.4.6-.7.9-1.7,1-3.2v-4.3c.2-1.9.2-3.8.3-5.8s.2-3.8.5-5.3c.2-1.3.7-2.3,1.7-2.9,1-.6,2.3-1,3.9-1s1.3,0,1.7,0c1,0,2,.5,3.3,1.4,1.2.8,1.9,1.6,2,2.5.5,2.6-.5,4-2.9,4.2-1.5-.3-2.4-.1-2.7.5-.3.7-.5,1.5-.5,2.5,0,.6,0,1.4-.1,2.5-.1,1.1-.2,2.2-.2,3.3Z"/>
  <path class="cls-2" d="M242.8,35.4c0,.8-.3,1.4-.8,1.9-.5.5-1.2.8-1.9.8-.8,0-1.4-.3-1.9-.8-.5-.5-.8-1.2-.8-1.9v-2.7c0-.8.3-1.4.8-1.9.5-.5,1.2-.8,1.9-.8s1.4.3,1.9.8c.5.5.8,1.2.8,1.9v2.7ZM253.5,35.5c0,.8-.3,1.4-.8,1.9-.5.5-1.2.8-1.9.8s-1.4-.3-1.9-.8c-.5-.5-.8-1.2-.8-1.9v-2.7c0-.8.3-1.4.8-1.9.5-.5,1.2-.8,1.9-.8.8,0,1.4.3,1.9.8.5.5.8,1.2.8,1.9v2.7ZM256,48.9c0,1.5-.5,2.7-1.6,3.8-1.1,1-2.3,1.6-3.8,1.5v2.7c0,.8-.3,1.4-.8,1.9-.5.5-1.2.8-1.9.8h-5.3c-.8,0-1.4-.3-1.9-.8-.5-.5-.8-1.2-.8-1.9v-2.7c-1.4,0-2.7-.5-3.7-1.6-1-1.1-1.6-2.3-1.5-3.8v-5.3c0-.8.3-1.4.8-1.9.5-.5,1.2-.8,1.9-.8h16c.8.1,1.4.4,1.9.9.5.5.8,1.2.8,1.9v5.3Z"/>
</svg>