<svg width="83" height="113" viewBox="0 0 83 113" fill="none" xmlns="http://www.w3.org/2000/svg">
<path d="M31.3172 20.6306C31.2939 23.5182 30.2959 25.9291 28.3233 27.8633C26.3508 29.7974 23.9241 30.7562 21.0432 30.7397C18.1623 30.7231 15.7515 29.7252 13.8106 27.7457C11.8697 25.7663 10.9109 23.3396 10.9342 20.4656L11.0167 10.2741C11.0401 7.38648 12.0381 4.97221 14.0107 3.03128C15.9833 1.09035 18.41 0.134941 21.2908 0.16506C24.1715 0.19518 26.5858 1.19319 28.5336 3.15906C30.4813 5.12494 31.4367 7.55163 31.3998 10.4391L31.3172 20.6306ZM72.0834 20.9607C72.06 23.8483 71.062 26.2592 69.0895 28.1933C67.1169 30.1275 64.6902 31.0863 61.8093 31.0697C58.9285 31.0532 56.5176 30.0552 54.5767 28.0758C52.6359 26.0964 51.6771 23.6697 51.7003 20.7957L51.7828 10.6042C51.8062 7.71656 52.8042 5.30229 54.7768 3.36136C56.7495 1.42043 59.1761 0.465015 62.0569 0.495135C64.9376 0.525254 67.3519 1.52326 69.2997 3.48914C71.2475 5.45502 72.2029 7.88171 72.1659 10.7692L72.0834 20.9607ZM81.8623 72.0009C81.8169 77.6062 79.784 82.3869 75.7634 86.3429C71.7428 90.2989 66.9264 92.2576 61.3142 92.2189L61.2317 102.41C61.2083 105.298 60.2104 107.709 58.2378 109.643C56.2652 111.577 53.8385 112.536 50.9577 112.519L30.5746 112.354C27.687 112.331 25.2761 111.333 23.342 109.361C21.4079 107.388 20.449 104.961 20.4656 102.08L20.5481 91.8888C14.9428 91.8435 10.1621 89.8071 6.20618 85.7797C2.25024 81.7523 0.291538 76.9394 0.330074 71.3407L0.495111 50.9577C0.518492 48.0701 1.51649 45.6558 3.4891 43.7149C5.46172 41.774 7.88841 40.8186 10.7692 40.8487L71.9184 41.3438C74.806 41.3672 77.2202 42.3652 79.1611 44.3378C81.1021 46.3104 82.0575 48.7371 82.0274 51.6178L81.8623 72.0009Z" fill="#FBD405"/>
</svg>
