<svg width="431" height="90" viewBox="0 0 431 90" fill="none" xmlns="http://www.w3.org/2000/svg">
<path d="M398.853 28.936C399.066 28.8507 399.536 28.7867 400.261 28.744C401.029 28.6587 401.712 28.616 402.309 28.616C403.504 28.616 404.592 29.3627 405.573 30.856L404.741 31.496C403.76 32.2213 402.352 32.776 400.517 33.16C398.896 33.9707 397.68 34.6533 396.869 35.208C396.101 35.7627 395.525 36.3813 395.141 37.064C394.8 37.7467 394.629 38.6213 394.629 39.688C394.629 40.2 394.757 41.5227 395.013 43.656L395.333 46.344C395.674 49.6293 395.973 52.04 396.229 53.576C396.314 54.1307 396.485 54.792 396.741 55.56C397.04 56.2853 397.338 56.712 397.637 56.84C397.936 56.968 398.533 56.7547 399.429 56.2C401.136 54.152 402.245 52.7227 402.757 51.912C402.885 51.6987 403.098 51.336 403.397 50.824C403.696 50.312 403.994 49.928 404.293 49.672C404.592 49.3733 404.954 49.224 405.381 49.224C405.466 49.224 405.68 49.2667 406.021 49.352C406.704 49.5653 407.237 49.8853 407.621 50.312C408.048 50.7387 408.261 51.3573 408.261 52.168C408.261 52.552 408.24 52.8293 408.197 53C407.941 54.7067 407.344 56.2427 406.405 57.608C405.466 58.9733 404.229 60.3173 402.693 61.64C402.096 62.1947 401.114 62.472 399.749 62.472C398.256 62.472 396.784 62.1307 395.333 61.448C393.882 60.808 392.901 59.9547 392.389 58.888C391.066 56.0293 389.829 52.3813 388.677 47.944C388.378 46.7067 388.144 44.744 387.973 42.056L387.781 39.688C387.696 38.7067 387.696 37.96 387.781 37.448C387.866 36.8933 387.034 36.552 385.285 36.424C384.645 36.3813 384.325 35.9547 384.325 35.144C384.752 33.7787 385.413 32.968 386.309 32.712C387.162 32.456 387.696 31.9227 387.909 31.112C388.122 30.2587 388.293 29.384 388.421 28.488C388.805 25.7147 388.89 22.6213 388.677 19.208C388.592 17.5867 389.082 16.648 390.149 16.392L390.725 16.456C390.938 16.4987 391.429 16.584 392.197 16.712C392.965 16.7973 393.648 16.9893 394.245 17.288C395.738 18.0987 396.485 19.528 396.485 21.576C396.485 22.4293 396.314 23.5387 395.973 24.904C395.93 25.1173 395.866 25.3093 395.781 25.48C395.696 25.6507 395.632 25.8427 395.589 26.056C395.461 26.696 395.397 27.2293 395.397 27.656C395.013 28.936 395.312 29.576 396.293 29.576C396.634 29.576 397.488 29.3627 398.853 28.936Z" fill="#3399FE"/>
<path d="M363.44 36.872C363.44 37.128 363.397 37.4693 363.312 37.896C363.227 38.28 363.205 38.536 363.248 38.664C366.192 38.024 368.688 37.704 370.736 37.704C373.936 37.704 376.347 39.24 377.968 42.312C379.291 44.9147 379.952 47.7947 379.952 50.952C379.952 51.7627 379.867 52.936 379.696 54.472C379.568 55.496 379.163 56.328 378.48 56.968C377.797 57.5653 376.987 57.864 376.048 57.864C375.067 57.864 374.363 57.6933 373.936 57.352C373.552 56.968 373.317 56.5413 373.232 56.072C373.189 55.6027 373.168 54.856 373.168 53.832L373.104 52.488C373.019 49.928 372.848 47.7093 372.592 45.832C372.464 45.064 372.165 44.5307 371.696 44.232C371.269 43.8907 370.693 43.72 369.968 43.72C369.285 43.72 368.475 43.8267 367.536 44.04C366.085 44.424 365.104 44.7227 364.592 44.936C364.123 45.1493 363.419 45.5973 362.48 46.28C362.181 46.4933 361.968 46.92 361.84 47.56C361.712 48.2 361.648 48.5627 361.648 48.648C361.093 51.3787 360.496 54.6427 359.856 58.44C359.813 58.6107 359.728 59.016 359.6 59.656C359.472 60.296 359.216 60.744 358.832 61C358.491 61.2987 357.979 61.4053 357.296 61.32C354.608 60.9787 353.243 59.848 353.2 57.928C353.157 55.4533 353.349 52.5307 353.776 49.16C354.075 46.728 354.352 44.7653 354.608 43.272C354.693 42.5893 354.8 41.7573 354.928 40.776C355.099 39.7947 355.248 38.664 355.376 37.384C355.504 36.4027 355.632 35.6773 355.76 35.208C355.888 34.7387 356.187 34.3547 356.656 34.056C357.125 33.7147 357.851 33.544 358.832 33.544C360.069 33.544 361.093 33.8213 361.904 34.376C362.715 34.9307 363.227 35.72 363.44 36.744V36.872Z" fill="#3399FE"/>
<path d="M334.91 51.016C334.484 51.272 333.865 51.4 333.055 51.4C332.756 51.4 332.393 51.3787 331.966 51.336C331.54 51.2933 331.177 51.2933 330.879 51.336C331.22 52.744 332.03 53.896 333.31 54.792C334.59 55.6453 336.02 56.072 337.599 56.072C338.964 56.072 340.18 55.7733 341.246 55.176C342.825 54.3653 344.19 53.4053 345.342 52.296C346.153 51.4853 346.921 51.08 347.647 51.08C348.116 51.08 348.521 51.3147 348.862 51.784C349.204 52.3387 349.375 53.0213 349.375 53.832C349.375 54.6853 349.204 55.3467 348.862 55.816C347.753 57.5227 346.302 58.696 344.51 59.336C342.761 59.976 340.713 60.296 338.367 60.296C335.935 60.296 333.588 59.7627 331.327 58.696C329.065 57.6293 327.124 56.1787 325.503 54.344C323.924 52.4667 322.878 50.3973 322.366 48.136C322.025 46.8133 321.854 45.512 321.854 44.232C321.854 42.2267 322.409 40.6053 323.518 39.368C324.67 38.1307 326.505 36.9573 329.022 35.848C331.326 34.8667 333.46 34.376 335.422 34.376C336.83 34.376 338.196 34.5893 339.518 35.016C343.614 36.296 345.663 38.0453 345.663 40.264C345.663 41.672 344.831 43.3787 343.167 45.384C342.356 46.3227 341.396 47.1547 340.286 47.88C339.177 48.6053 338.089 49.2667 337.022 49.864C335.998 50.4187 335.294 50.8027 334.91 51.016ZM337.599 39.176C337.556 38.9627 337.385 38.792 337.086 38.664C336.83 38.4933 336.681 38.3867 336.638 38.344C335.486 38.2587 334.313 38.6 333.118 39.368C331.924 40.0933 330.921 41.032 330.111 42.184C329.343 43.336 328.958 44.4453 328.958 45.512L329.022 46.024C329.065 46.1947 329.279 46.408 329.663 46.664C330.089 46.92 330.345 47.0053 330.431 46.92C333.46 44.6587 335.743 42.8453 337.279 41.48C337.535 41.224 337.663 40.7547 337.663 40.072C337.663 39.6453 337.641 39.3467 337.599 39.176Z" fill="#3399FE"/>
<path d="M302.555 41.224C304.304 38.664 306.288 37.8107 308.507 38.664C310.768 39.5173 312.133 40.584 312.603 41.864L314.523 46.984C315.035 48.3067 315.461 50.3333 315.803 53.064C316.187 55.7947 316.528 58.3973 316.827 60.872C316.869 61 316.891 61.2347 316.891 61.576C316.891 62.8987 316.165 63.752 314.715 64.136C313.776 64.392 313.008 64.1573 312.411 63.432C311.515 62.3653 310.789 60.7227 310.235 58.504C309.936 57.3093 309.509 54.7493 308.955 50.824C308.955 47.752 307.888 46.6213 305.755 47.432C304.645 49.608 303.92 51.3787 303.579 52.744C303.28 54.1093 302.96 55.2827 302.619 56.264C301.552 58.7387 300.635 60.0827 299.867 60.296C299.141 60.4667 298.416 60.3813 297.691 60.04C297.008 59.6987 296.667 59.016 296.667 57.992C296.667 55.8587 296.539 53.256 296.283 50.184C296.069 47.0693 295.344 45.5973 294.107 45.768C292.912 45.896 292.08 46.344 291.611 47.112C291.141 47.8373 290.544 49.224 289.819 51.272C289.136 53.32 288.624 55.56 288.283 57.992C288.197 58.632 287.941 59.336 287.515 60.104C287.131 60.8293 286.768 61.2773 286.427 61.448C286.085 61.6613 285.445 61.5547 284.507 61.128C283.611 60.744 283.077 60.168 282.907 59.4C282.736 58.5893 282.587 57.7573 282.459 56.904C282.117 54.5147 281.947 52.4667 281.947 50.76C281.989 49.0533 281.861 47.4533 281.563 45.96C281.477 45.6187 281.285 45.1067 280.987 44.424C280.688 43.7413 279.131 42.5893 276.315 40.968C275.547 40.2427 275.184 39.5387 275.227 38.856C275.269 38.1307 275.568 37.5973 276.123 37.256C276.976 36.744 277.893 36.488 278.875 36.488C280.112 36.488 281.285 36.8507 282.395 37.576C283.504 38.3013 284.336 39.112 284.891 40.008C285.403 40.8187 285.744 41.4587 285.915 41.928C286.085 42.3973 286.32 42.632 286.619 42.632C286.875 42.632 287.152 42.44 287.451 42.056C287.792 41.6293 288.261 41.096 288.859 40.456C290.096 39.1333 291.269 38.2587 292.379 37.832C293.531 37.3627 294.469 37.128 295.194 37.128C295.962 37.128 296.773 37.384 297.627 37.896C298.48 38.3653 299.056 39.1973 299.355 40.392L300.571 45.128L302.555 41.224Z" fill="#3399FE"/>
<path d="M253.94 36.872C253.94 37.128 253.897 37.4693 253.812 37.896C253.727 38.28 253.705 38.536 253.748 38.664C256.692 38.024 259.188 37.704 261.236 37.704C264.436 37.704 266.847 39.24 268.468 42.312C269.791 44.9147 270.452 47.7947 270.452 50.952C270.452 51.7627 270.367 52.936 270.196 54.472C270.068 55.496 269.663 56.328 268.98 56.968C268.297 57.5653 267.487 57.864 266.548 57.864C265.567 57.864 264.863 57.6933 264.436 57.352C264.052 56.968 263.817 56.5413 263.732 56.072C263.689 55.6027 263.668 54.856 263.668 53.832L263.604 52.488C263.519 49.928 263.348 47.7093 263.092 45.832C262.964 45.064 262.665 44.5307 262.196 44.232C261.769 43.8907 261.193 43.72 260.468 43.72C259.785 43.72 258.975 43.8267 258.036 44.04C256.585 44.424 255.604 44.7227 255.092 44.936C254.623 45.1493 253.919 45.5973 252.98 46.28C252.681 46.4933 252.468 46.92 252.34 47.56C252.212 48.2 252.148 48.5627 252.148 48.648C251.593 51.3787 250.996 54.6427 250.356 58.44C250.313 58.6107 250.228 59.016 250.1 59.656C249.972 60.296 249.716 60.744 249.332 61C248.991 61.2987 248.479 61.4053 247.796 61.32C245.108 60.9787 243.743 59.848 243.7 57.928C243.657 55.4533 243.849 52.5307 244.276 49.16C244.575 46.728 244.852 44.7653 245.108 43.272C245.193 42.5893 245.3 41.7573 245.428 40.776C245.599 39.7947 245.748 38.664 245.876 37.384C246.004 36.4027 246.132 35.6773 246.26 35.208C246.388 34.7387 246.687 34.3547 247.156 34.056C247.625 33.7147 248.351 33.544 249.332 33.544C250.569 33.544 251.593 33.8213 252.404 34.376C253.215 34.9307 253.727 35.72 253.94 36.744V36.872Z" fill="#3399FE"/>
<path d="M234.096 29.896C231.578 30.152 229.509 29.128 227.888 26.824C229.21 25.8427 230.512 25.352 231.792 25.352C233.285 25.352 234.522 26.0347 235.504 27.4C235.76 27.6987 235.888 28.0613 235.888 28.488C235.888 28.872 235.717 29.192 235.376 29.448C235.034 29.704 234.608 29.8533 234.096 29.896ZM236.72 44.04C236.677 45.064 236.57 46.6 236.4 48.648L236.016 53.256C236.016 53.8107 236.08 54.408 236.208 55.048C236.336 55.688 236.421 56.1147 236.464 56.328C236.549 57.0107 236.4 57.608 236.016 58.12C235.632 58.5893 235.141 58.824 234.544 58.824C234.288 58.824 234.096 58.8027 233.968 58.76C232.517 58.3333 231.322 57.672 230.384 56.776C229.445 55.8373 228.997 54.6 229.04 53.064C229.082 52.3813 229.104 51.3573 229.104 49.992C229.104 48.456 229.082 47.304 229.04 46.536C229.04 45.9387 229.018 45.2133 228.976 44.36C228.976 43.5067 228.997 42.504 229.04 41.352C229.082 40.7973 229.21 40.2 229.424 39.56C229.637 38.92 229.872 38.5787 230.128 38.536C230.81 38.408 231.578 38.344 232.432 38.344C233.541 38.344 234.352 38.536 234.864 38.92C235.248 39.2187 235.568 39.624 235.824 40.136C236.08 40.648 236.357 41.3307 236.656 42.184C236.912 42.8667 237.125 43.3787 237.296 43.72L236.72 44.04Z" fill="#3399FE"/>
<path d="M216.408 57.736C216.024 57.5653 215.64 57.48 215.256 57.48C214.872 57.48 214.53 57.5867 214.232 57.8C213.976 57.9707 213.677 58.248 213.336 58.632C212.824 59.144 212.29 59.5707 211.736 59.912C211.224 60.2107 210.285 60.488 208.92 60.744C208.322 60.8293 207.832 60.872 207.448 60.872C205.656 60.872 203.778 60.488 201.816 59.72C199.896 58.9093 198.53 57.9493 197.72 56.84C196.866 55.6453 196.461 54.3653 196.504 53C196.546 50.952 197.4 48.904 199.064 46.856C200.685 44.8933 202.157 43.5067 203.48 42.696C204.845 41.8853 206.701 41.3733 209.048 41.16C209.56 41.16 210.285 41.0747 211.224 40.904C212.205 40.7333 212.696 40.4987 212.696 40.2C212.696 39.6027 212.418 39.0693 211.864 38.6C211.352 38.088 210.285 37.832 208.664 37.832C208.066 37.832 207.17 37.8747 205.976 37.96C204.781 38.0453 203.949 38.088 203.48 38.088C202.029 38.088 200.984 37.8533 200.344 37.384C200.173 37.2987 200.088 36.8933 200.088 36.168C200.088 34.888 200.536 34.0773 201.432 33.736C203.266 33.0533 205.165 32.6907 207.128 32.648C209.602 32.648 211.885 33.2027 213.976 34.312C216.109 35.3787 217.666 36.7227 218.648 38.344C219.629 39.9653 220.269 42.2053 220.568 45.064C220.909 48.264 221.08 52.3387 221.08 57.288C221.08 58.6533 220.888 59.4427 220.504 59.656C220.162 59.8693 219.842 59.976 219.544 59.976C219.16 59.976 218.797 59.8693 218.456 59.656C218.157 59.4 217.816 59.0587 217.432 58.632C217.048 58.1627 216.706 57.864 216.408 57.736ZM206.296 56.968C208.301 56.3707 210.264 55.4107 212.184 54.088C212.61 53.7893 212.994 53.4053 213.336 52.936C213.677 52.4667 213.89 52.168 213.976 52.04C214.061 51.912 214.125 51.5493 214.168 50.952C214.253 50.312 214.274 49.8 214.232 49.416C214.189 49.288 214.104 48.9467 213.976 48.392C213.89 47.8373 213.741 47.3467 213.528 46.92C213.314 46.5787 212.973 46.2587 212.504 45.96C212.034 45.6613 211.608 45.5333 211.224 45.576C210.413 45.6187 209.538 45.9173 208.6 46.472C207.661 47.0267 206.786 47.7733 205.976 48.712C205.165 49.6933 204.525 50.696 204.056 51.72C203.629 52.7013 203.416 53.6187 203.416 54.472C203.501 55.624 203.821 56.392 204.376 56.776C204.674 56.9893 205.037 57.096 205.464 57.096C205.805 57.096 206.082 57.0533 206.296 56.968Z" fill="#3399FE"/>
<path d="M181.103 28.936C181.316 28.8507 181.786 28.7867 182.511 28.744C183.279 28.6587 183.962 28.616 184.559 28.616C185.754 28.616 186.842 29.3627 187.823 30.856L186.991 31.496C186.01 32.2213 184.602 32.776 182.767 33.16C181.146 33.9707 179.93 34.6533 179.119 35.208C178.351 35.7627 177.775 36.3813 177.391 37.064C177.05 37.7467 176.879 38.6213 176.879 39.688C176.879 40.2 177.007 41.5227 177.263 43.656L177.583 46.344C177.924 49.6293 178.223 52.04 178.479 53.576C178.564 54.1307 178.735 54.792 178.991 55.56C179.29 56.2853 179.588 56.712 179.887 56.84C180.186 56.968 180.783 56.7547 181.679 56.2C183.386 54.152 184.495 52.7227 185.007 51.912C185.135 51.6987 185.348 51.336 185.647 50.824C185.946 50.312 186.244 49.928 186.543 49.672C186.842 49.3733 187.204 49.224 187.631 49.224C187.716 49.224 187.93 49.2667 188.271 49.352C188.954 49.5653 189.487 49.8853 189.871 50.312C190.298 50.7387 190.511 51.3573 190.511 52.168C190.511 52.552 190.49 52.8293 190.447 53C190.191 54.7067 189.594 56.2427 188.655 57.608C187.716 58.9733 186.479 60.3173 184.943 61.64C184.346 62.1947 183.364 62.472 181.999 62.472C180.506 62.472 179.034 62.1307 177.583 61.448C176.132 60.808 175.151 59.9547 174.639 58.888C173.316 56.0293 172.079 52.3813 170.927 47.944C170.628 46.7067 170.394 44.744 170.223 42.056L170.031 39.688C169.946 38.7067 169.946 37.96 170.031 37.448C170.116 36.8933 169.284 36.552 167.535 36.424C166.895 36.3813 166.575 35.9547 166.575 35.144C167.002 33.7787 167.663 32.968 168.559 32.712C169.412 32.456 169.946 31.9227 170.159 31.112C170.372 30.2587 170.543 29.384 170.671 28.488C171.055 25.7147 171.14 22.6213 170.927 19.208C170.842 17.5867 171.332 16.648 172.399 16.392L172.975 16.456C173.188 16.4987 173.679 16.584 174.447 16.712C175.215 16.7973 175.898 16.9893 176.495 17.288C177.988 18.0987 178.735 19.528 178.735 21.576C178.735 22.4293 178.564 23.5387 178.223 24.904C178.18 25.1173 178.116 25.3093 178.031 25.48C177.946 25.6507 177.882 25.8427 177.839 26.056C177.711 26.696 177.647 27.2293 177.647 27.656C177.263 28.936 177.562 29.576 178.543 29.576C178.884 29.576 179.738 29.3627 181.103 28.936Z" fill="#3399FE"/>
<path d="M144.961 33.864C145.089 34.2907 145.11 34.952 145.024 35.848L144.257 43.4C144.47 43.2293 144.79 42.632 145.216 41.608C145.643 40.5413 146.049 39.688 146.433 39.048C146.817 38.3653 147.115 37.9173 147.329 37.704C149.334 35.784 151.595 34.632 154.113 34.248C156.63 33.864 159.403 33.6933 162.432 33.736C162.731 33.736 163.051 33.864 163.393 34.12C163.777 34.3333 163.969 34.5253 163.969 34.696C163.969 34.824 163.841 35.0587 163.585 35.4C163.329 35.6987 163.094 35.8907 162.88 35.976C160.32 36.8293 158.059 37.8107 156.096 38.92C154.176 40.0293 152.513 41.48 151.105 43.272C147.777 47.496 145.856 51.848 145.344 56.328C145.216 57.5227 144.854 58.3333 144.257 58.76C143.659 59.144 142.827 59.336 141.76 59.336C140.566 59.336 139.499 58.824 138.561 57.8C137.622 56.776 137.152 55.6453 137.152 54.408C137.195 49.8853 137.216 43.1013 137.216 34.056C137.216 32.8187 137.494 31.9653 138.049 31.496C138.603 30.984 139.606 30.728 141.057 30.728C142.123 30.728 143.019 31.0267 143.744 31.624C144.512 32.2213 144.918 32.968 144.961 33.864Z" fill="#3399FE"/>
<path d="M119.887 54.728C121.295 52.3387 121.999 49.3733 121.999 45.832C121.999 44.7653 121.914 43.144 121.743 40.968V36.68V34.376C121.743 33.0107 122.234 32.328 123.215 32.328C123.556 32.328 123.898 32.392 124.239 32.52C126.415 33.4587 127.652 34.4613 127.951 35.528C129.018 39.0267 129.551 42.4613 129.551 45.832C129.551 49.544 128.868 53.1067 127.503 56.52C126.778 58.312 125.647 59.656 124.111 60.552C122.618 61.448 120.954 61.896 119.119 61.896C116.858 61.896 114.874 61.3413 113.167 60.232C110.223 58.3547 108.495 55.6667 107.983 52.168C107.77 50.4187 107.578 49.0747 107.407 48.136C106.98 45.6187 106.703 43.656 106.575 42.248C106.532 41.2667 106.874 40.4773 107.599 39.88C108.324 39.24 109.199 38.92 110.223 38.92C110.607 38.92 110.991 38.984 111.375 39.112C112.954 39.6667 114.042 40.456 114.639 41.48C115.236 42.504 115.514 43.8907 115.471 45.64C115.386 47.0053 115.343 48.0293 115.343 48.712C115.343 51.144 115.834 53.1493 116.815 54.728C116.986 55.0693 117.22 55.3893 117.519 55.688C117.818 55.9867 118.01 56.1147 118.095 56.072C118.436 56.0293 118.756 55.88 119.055 55.624C119.396 55.368 119.674 55.0693 119.887 54.728Z" fill="#3399FE"/>
<path d="M90.7905 28.936C91.0038 28.8507 91.4732 28.7867 92.1985 28.744C92.9665 28.6587 93.6492 28.616 94.2465 28.616C95.4412 28.616 96.5292 29.3627 97.5105 30.856L96.6785 31.496C95.6972 32.2213 94.2892 32.776 92.4545 33.16C90.8332 33.9707 89.6172 34.6533 88.8065 35.208C88.0385 35.7627 87.4625 36.3813 87.0785 37.064C86.7372 37.7467 86.5665 38.6213 86.5665 39.688C86.5665 40.2 86.6945 41.5227 86.9505 43.656L87.2705 46.344C87.6118 49.6293 87.9105 52.04 88.1665 53.576C88.2518 54.1307 88.4225 54.792 88.6785 55.56C88.9772 56.2853 89.2758 56.712 89.5745 56.84C89.8732 56.968 90.4705 56.7547 91.3665 56.2C93.0732 54.152 94.1825 52.7227 94.6945 51.912C94.8225 51.6987 95.0358 51.336 95.3345 50.824C95.6332 50.312 95.9318 49.928 96.2305 49.672C96.5292 49.3733 96.8918 49.224 97.3185 49.224C97.4038 49.224 97.6172 49.2667 97.9585 49.352C98.6412 49.5653 99.1745 49.8853 99.5585 50.312C99.9852 50.7387 100.199 51.3573 100.199 52.168C100.199 52.552 100.177 52.8293 100.135 53C99.8785 54.7067 99.2812 56.2427 98.3425 57.608C97.4038 58.9733 96.1665 60.3173 94.6305 61.64C94.0332 62.1947 93.0518 62.472 91.6865 62.472C90.1932 62.472 88.7212 62.1307 87.2705 61.448C85.8198 60.808 84.8385 59.9547 84.3265 58.888C83.0038 56.0293 81.7665 52.3813 80.6145 47.944C80.3158 46.7067 80.0812 44.744 79.9105 42.056L79.7185 39.688C79.6332 38.7067 79.6332 37.96 79.7185 37.448C79.8038 36.8933 78.9718 36.552 77.2225 36.424C76.5825 36.3813 76.2625 35.9547 76.2625 35.144C76.6892 33.7787 77.3505 32.968 78.2465 32.712C79.0998 32.456 79.6332 31.9227 79.8465 31.112C80.0598 30.2587 80.2305 29.384 80.3585 28.488C80.7425 25.7147 80.8278 22.6213 80.6145 19.208C80.5292 17.5867 81.0198 16.648 82.0865 16.392L82.6625 16.456C82.8758 16.4987 83.3665 16.584 84.1345 16.712C84.9025 16.7973 85.5852 16.9893 86.1825 17.288C87.6758 18.0987 88.4225 19.528 88.4225 21.576C88.4225 22.4293 88.2518 23.5387 87.9105 24.904C87.8678 25.1173 87.8038 25.3093 87.7185 25.48C87.6332 25.6507 87.5692 25.8427 87.5265 26.056C87.3985 26.696 87.3345 27.2293 87.3345 27.656C86.9505 28.936 87.2492 29.576 88.2305 29.576C88.5718 29.576 89.4252 29.3627 90.7905 28.936Z" fill="#3399FE"/>
<path d="M51.3915 34.12C52.4582 34.4187 53.2048 34.7813 53.6315 35.208C54.1008 35.6347 54.3355 36.2107 54.3355 36.936C54.3355 37.2773 54.2715 37.7253 54.1435 38.28C53.6742 40.2 53.4182 42.12 53.3755 44.04C53.3328 46.216 53.6742 48.2213 54.3995 50.056C54.6555 50.696 54.8902 51.1653 55.1035 51.464C55.3595 51.72 55.6582 51.848 55.9995 51.848C56.4262 51.848 56.9808 51.464 57.6635 50.696C59.2422 48.8187 60.4155 46.9413 61.1835 45.064C61.9515 43.1867 62.4208 41.2453 62.5915 39.24C62.7195 37.9173 62.9328 37.0853 63.2315 36.744C63.4022 36.5733 63.6795 36.4667 64.0635 36.424C64.4475 36.3813 65.0022 36.36 65.7275 36.36C66.8795 36.4453 67.6688 36.552 68.0955 36.68C68.5648 36.808 68.8848 37.0213 69.0555 37.32C69.2262 37.6187 69.3115 38.1093 69.3115 38.792L69.2475 41.8C69.2475 42.44 69.2262 43.3787 69.1835 44.616C69.0555 48.456 68.9488 51.3147 68.8635 53.192C68.8208 54.6853 68.3728 56.5627 67.5195 58.824C67.4342 58.952 67.1995 59.144 66.8155 59.4C66.4315 59.6133 66.0902 59.7413 65.7915 59.784C65.7062 59.784 65.5142 59.656 65.2155 59.4C64.9595 59.1013 64.7675 58.8453 64.6395 58.632C64.3408 57.9493 63.9995 57.032 63.6155 55.88L63.1035 54.664L62.9755 54.28L62.7835 54.472L61.7595 55.112C61.2475 55.5387 60.6928 55.88 60.0955 56.136C59.1142 56.7333 57.9408 57.032 56.5755 57.032C54.8688 57.032 53.2475 56.5627 51.7115 55.624C50.1755 54.6427 48.9595 53.32 48.0635 51.656C46.6128 49.096 45.8875 46.1307 45.8875 42.76C45.8875 41.0533 46.1222 38.8987 46.5915 36.296C46.6768 35.656 47.0822 35.1013 47.8075 34.632C48.4475 34.1627 49.1942 33.928 50.0475 33.928C50.4742 33.928 50.9222 33.992 51.3915 34.12Z" fill="#3399FE"/>
<path d="M31.864 40.904C31.864 42.44 31.928 43.4427 32.056 43.912C32.2267 44.3813 32.6107 44.616 33.208 44.616C33.7627 44.616 34.6373 44.488 35.832 44.232H37.304C39.736 44.232 41.2293 44.7653 41.784 45.832C41.9973 45.9173 42.2107 46.152 42.424 46.536C42.6373 46.8773 42.7867 47.112 42.872 47.24C42.7013 47.368 42.4453 47.5813 42.104 47.88C41.7627 48.136 41.4427 48.2853 41.144 48.328C40.1627 48.5413 38.6907 48.8187 36.728 49.16C36.344 49.2027 35.6613 49.3093 34.68 49.48C33.144 49.7787 32.376 50.6747 32.376 52.168C32.376 52.3813 32.4187 52.7867 32.504 53.384C33.016 55.688 33.4427 57.7147 33.784 59.464C34.1253 61.1707 34.4027 62.6 34.616 63.752L35.768 69.384C36.1947 71.432 36.408 73.0107 36.408 74.12C36.408 74.9307 36.216 75.528 35.832 75.912C35.448 76.3387 34.7013 76.552 33.592 76.552C32.6533 76.552 31.9493 76.3173 31.48 75.848C31.0107 75.3787 30.6693 74.632 30.456 73.608C30.072 71.6453 29.4107 68.7013 28.472 64.776L26.424 54.152C26.3387 51.6773 25.1227 50.44 22.776 50.44C22.008 50.44 21.4747 50.312 21.176 50.056C20.92 49.8427 20.6853 49.608 20.472 49.352C20.2587 49.0533 20.152 48.776 20.152 48.52C20.152 48.3067 20.28 48.072 20.536 47.816C20.8347 47.5173 21.112 47.3467 21.368 47.304C22.904 47.0907 23.928 46.664 24.44 46.024C24.9947 45.384 25.2933 44.3813 25.336 43.016L25.464 38.92C25.5067 37.128 25.5707 35.2933 25.656 33.416C25.7413 31.5387 25.8907 29.8747 26.104 28.424C26.2747 27.1867 26.808 26.2907 27.704 25.736C28.6 25.1387 29.8373 24.84 31.416 24.84C32.0987 24.84 32.632 24.8613 33.016 24.904C33.912 24.9893 34.936 25.416 36.088 26.184C37.24 26.9093 37.8587 27.6987 37.944 28.552C38.3707 30.984 37.4747 32.3067 35.256 32.52C33.8053 32.2213 32.952 32.392 32.696 33.032C32.44 33.672 32.2693 34.4613 32.184 35.4C32.184 35.9547 32.1413 36.744 32.056 37.768C31.928 38.792 31.864 39.8373 31.864 40.904Z" fill="#3399FE"/>
<path d="M230.747 13.1037C230.742 13.8181 230.495 14.4145 230.007 14.893C229.519 15.3715 228.919 15.6087 228.206 15.6046C227.493 15.6005 226.897 15.3536 226.417 14.8639C225.936 14.3742 225.699 13.7739 225.705 13.0629L225.725 10.5417C225.731 9.82731 225.978 9.23005 226.466 8.74989C226.954 8.26973 227.554 8.03337 228.267 8.04082C228.98 8.04827 229.577 8.29517 230.059 8.7815C230.541 9.26783 230.777 9.86816 230.768 10.5825L230.747 13.1037ZM240.832 13.1854C240.827 13.8998 240.58 14.4962 240.092 14.9747C239.604 15.4531 239.004 15.6903 238.291 15.6862C237.578 15.6821 236.982 15.4353 236.502 14.9456C236.021 14.4559 235.784 13.8556 235.79 13.1446L235.81 10.6233C235.816 9.90897 236.063 9.31171 236.551 8.83155C237.039 8.35138 237.639 8.11503 238.352 8.12248C239.065 8.12993 239.662 8.37682 240.144 8.86316C240.626 9.34949 240.862 9.94982 240.853 10.6641L240.832 13.1854ZM243.252 25.8121C243.24 27.1988 242.738 28.3814 241.743 29.3601C240.748 30.3388 239.557 30.8233 238.168 30.8137L238.148 33.335C238.142 34.0494 237.895 34.6458 237.407 35.1242C236.919 35.6027 236.319 35.8399 235.606 35.8358L230.564 35.795C229.849 35.7892 229.253 35.5423 228.775 35.0544C228.296 34.5664 228.059 33.966 228.063 33.2533L228.083 30.7321C226.697 30.7209 225.514 30.2171 224.535 29.2208C223.557 28.2244 223.072 27.0338 223.082 25.6488L223.122 20.6063C223.128 19.8919 223.375 19.2946 223.863 18.8145C224.351 18.3343 224.951 18.098 225.664 18.1054L240.792 18.2279C241.506 18.2337 242.103 18.4806 242.583 18.9686C243.064 19.4566 243.3 20.0569 243.292 20.7696L243.252 25.8121Z" fill="#FBD405"/>
</svg>
